<?xml version="1.0" standalone="no"?>
<!DOCTYPE svg PUBLIC "-//W3C//DTD SVG 20010904//EN"
 "http://www.w3.org/TR/2001/REC-SVG-20010904/DTD/svg10.dtd">
<svg version="1.0" xmlns="http://www.w3.org/2000/svg"
 width="506.000000pt" height="506.000000pt" viewBox="0 0 506.000000 506.000000"
 preserveAspectRatio="xMidYMid meet">
<metadata>
Created by potrace 1.11, written by Peter Selinger 2001-2013
</metadata>
<g transform="translate(0.000000,506.000000) scale(0.100000,-0.100000)"
fill="#000000" stroke="none">
<path d="M2270 5038 c-121 -11 -334 -53 -464 -93 -919 -279 -1598 -1048 -1761
-1995 -136 -792 127 -1617 699 -2194 338 -341 774 -581 1246 -686 93 -20 293
-50 340 -50 l30 0 0 240 0 240 -22 4 c-13 2 -75 12 -138 21 -724 108 -1368
656 -1600 1362 -80 245 -104 423 -97 708 4 174 10 231 32 335 67 321 203 613
401 865 73 93 251 270 344 342 278 216 613 358 962 409 62 9 114 17 116 19 1
1 1 110 0 241 l-3 239 -85 -7z"/>
<path d="M2780 4796 l0 -243 78 -13 c644 -102 1214 -525 1502 -1115 196 -401
254 -862 165 -1303 -144 -707 -669 -1297 -1357 -1523 -101 -33 -214 -60 -350
-84 l-38 -6 0 -238 c0 -131 2 -240 5 -243 16 -16 347 50 498 98 401 130 730
328 1018 614 191 190 315 354 442 584 156 281 254 592 293 934 20 165 14 491
-11 647 -87 551 -346 1052 -739 1432 -330 319 -711 532 -1151 642 -73 19 -312
61 -342 61 -10 0 -13 -55 -13 -244z"/>
<path d="M2389 4047 c-57 -62 -295 -317 -528 -566 -232 -249 -420 -455 -417
-458 6 -7 348 -148 457 -190 l66 -25 266 172 267 172 0 504 c0 277 -1 504 -3
504 -2 0 -50 -51 -108 -113z"/>
<path d="M2602 3651 l3 -504 238 -183 238 -184 127 54 c70 29 184 78 255 107
70 29 127 56 127 59 0 5 -936 1100 -971 1135 -19 19 -19 16 -17 -484z"/>
<path d="M2290 2904 c-155 -100 -256 -171 -258 -182 -4 -28 246 -944 260 -954
7 -4 40 -6 73 -2 52 5 63 3 79 -14 39 -44 11 -140 -59 -200 -20 -18 -40 -32
-45 -32 -6 0 -10 -9 -10 -19 0 -38 11 -51 45 -51 18 0 44 -10 60 -22 24 -18
27 -26 22 -60 -7 -53 -51 -116 -92 -134 -19 -8 -55 -14 -79 -14 l-46 0 108
-158 c59 -87 116 -171 128 -186 l21 -29 137 181 c75 100 136 184 136 187 0 3
-15 5 -34 5 -22 0 -45 9 -62 24 -26 22 -29 31 -36 127 -4 57 -10 121 -14 141
-5 33 -2 41 24 68 17 16 41 30 54 31 65 3 63 1 66 54 2 41 -3 62 -28 108 -16
31 -30 65 -30 75 0 25 30 51 72 62 29 8 35 16 45 52 6 24 50 196 98 383 48
187 89 344 91 350 4 8 -409 337 -461 367 -6 4 -125 -68 -265 -158z"/>
<path d="M1275 2854 l-87 -94 63 -93 c186 -271 341 -497 427 -624 53 -79 99
-143 103 -143 4 0 34 20 66 44 94 71 90 72 238 -43 72 -55 131 -98 133 -96 2
1 -51 173 -118 381 -67 209 -133 413 -146 455 l-24 77 -260 106 c-143 58 -270
110 -284 116 -22 8 -32 0 -111 -86z"/>
<path d="M3388 2806 c-147 -62 -270 -115 -273 -117 -2 -3 -54 -169 -115 -370
-61 -200 -113 -372 -116 -381 -5 -17 9 -18 205 -18 l210 0 23 33 c26 37 406
549 485 653 29 39 53 73 53 76 0 8 -190 232 -199 235 -3 1 -126 -49 -273 -111z"/>
<path d="M1875 1892 c-111 -85 -152 -99 -303 -110 -91 -7 -98 -9 -109 -33 -18
-37 -1 -90 36 -112 37 -22 59 -21 123 3 29 11 54 20 55 20 1 0 5 -30 8 -66 9
-78 18 -84 126 -84 54 0 69 -3 69 -15 0 -11 -19 -15 -92 -17 -85 -3 -93 -5
-93 -23 0 -18 8 -20 95 -25 90 -5 95 -6 98 -28 l4 -24 -149 2 c-81 1 -154 2
-161 1 -20 -2 -35 -52 -23 -78 l11 -23 378 0 c362 0 380 1 404 20 24 19 55 76
46 85 -2 2 -84 0 -181 -6 -98 -5 -182 -7 -187 -4 -6 3 -10 17 -10 31 0 23 2
24 80 24 73 0 80 2 80 20 0 18 -7 20 -80 20 -63 0 -80 3 -80 15 0 11 17 15 73
17 56 2 72 6 72 18 0 13 -24 15 -142 18 -131 2 -169 10 -127 26 9 3 67 6 130
6 87 0 114 3 114 13 0 29 -25 37 -121 37 -59 0 -100 4 -104 11 -11 17 -4 18
95 24 92 5 95 4 130 -24 104 -83 187 -82 240 4 11 18 20 41 20 52 0 17 -7 19
-62 19 -81 0 -112 15 -266 131 -67 51 -128 93 -135 93 -7 0 -34 -17 -62 -38z
m115 -131 c25 -22 42 -42 39 -45 -4 -4 -62 -5 -130 -4 l-124 3 80 42 c44 23
82 42 85 42 3 0 25 -17 50 -38z"/>
<path d="M2775 1850 c-3 -6 3 -23 13 -38 29 -40 44 -107 40 -176 l-3 -61 55
-3 c30 -2 137 -1 238 3 234 9 226 4 230 149 3 74 0 111 -8 121 -10 13 -58 15
-286 15 -172 0 -275 -4 -279 -10z m480 -95 c0 -19 -8 -20 -122 -23 -114 -2
-123 -1 -123 16 0 10 3 22 7 26 4 3 59 5 122 4 108 -3 116 -4 116 -23z m-11
-81 c9 -3 16 -17 16 -30 l0 -25 -127 3 c-116 3 -128 5 -131 22 -2 10 2 22 10
27 15 10 208 12 232 3z"/>
<path d="M2701 1549 c-19 -8 -22 -14 -16 -37 4 -15 10 -72 13 -127 l7 -100
180 0 180 0 6 85 c4 47 12 97 19 112 24 51 16 54 -167 61 -93 3 -175 8 -183
11 -8 3 -26 0 -39 -5z m314 -89 c0 -25 -1 -25 -102 -28 -102 -3 -103 -3 -103
21 0 13 3 27 7 31 4 4 50 5 103 4 94 -3 95 -3 95 -28z m0 -90 c0 -25 0 -25
-109 -28 -60 -1 -113 1 -119 7 -5 5 -6 19 -2 30 6 21 12 22 118 19 l112 -3 0
-25z"/>
<path d="M3158 1553 c-23 -6 -29 -29 -16 -61 6 -15 14 -67 17 -117 l6 -90 178
-3 c97 -1 177 -1 178 0 1 2 5 46 10 98 4 52 9 109 11 125 l3 30 -160 7 c-88 4
-171 9 -185 11 -14 2 -32 2 -42 0z m310 -95 l3 -28 -95 0 c-95 0 -96 0 -96 24
0 32 10 35 105 33 79 -2 80 -2 83 -29z m0 -90 l3 -28 -109 0 c-85 0 -112 3
-122 15 -10 12 -10 18 0 30 11 13 34 15 119 13 l106 -3 3 -27z"/>
<path d="M2234 1494 c3 -9 6 -24 6 -35 0 -15 7 -19 36 -19 33 0 36 2 30 23 -3
12 -6 28 -6 35 0 7 -14 12 -36 12 -29 0 -35 -3 -30 -16z"/>
</g>
</svg>
